<svg width="129" height="129" viewBox="0 0 129 129" fill="none" xmlns="http://www.w3.org/2000/svg">
<path d="M129 64.5C129 28.8733 100.122 0 64.5 0C28.8782 0 0 28.8733 0 64.5C0 100.122 28.8782 129 64.5 129C100.122 129 129 100.122 129 64.5ZM5.16472 64.5C5.16472 31.7803 31.7852 5.1598 64.5049 5.1598C97.2247 5.1598 123.845 31.7803 123.845 64.5C123.845 97.2197 97.2296 123.84 64.5049 123.84C31.7852 123.84 5.16472 97.2197 5.16472 64.5Z" fill="white"/>
<path d="M92.2321 60.5838L95.8818 56.9341L64.5049 25.5571L33.1329 56.9341L36.7826 60.5838L61.9274 35.439V98.0403H67.0872V35.439L92.2321 60.5838Z" fill="white"/>
</svg>
