<svg width="88" height="99" viewBox="0 0 88 99" fill="none" xmlns="http://www.w3.org/2000/svg">
<path fill-rule="evenodd" clip-rule="evenodd" d="M44.0001 0C45.4587 0 46.8579 0.579481 47.8891 1.6109L86.3892 40.111C88.5369 42.2587 88.5369 45.7413 86.3892 47.8891C84.2414 50.0368 80.7588 50.0368 78.6111 47.8891L49.5001 18.7782V93.5001C49.5001 96.5377 47.0377 99.0001 44.0001 99.0001C40.9624 99.0001 38.5001 96.5377 38.5001 93.5001V18.7782L9.38912 47.8891C7.2412 50.0368 3.75882 50.0368 1.6109 47.8891C-0.536966 45.7413 -0.536966 42.2587 1.6109 40.111L40.111 1.6109C41.1423 0.579481 42.5415 0 44.0001 0Z" fill="white"/>
</svg>
