<svg width="88" height="66" viewBox="0 0 88 66" fill="none" xmlns="http://www.w3.org/2000/svg">
<path d="M4.40265 65.8842H83.6049C84.4068 65.8816 85.1928 65.6605 85.8783 65.2445C86.5639 64.8285 87.123 64.2334 87.4955 63.5233C87.868 62.8131 88.0397 62.0149 87.9923 61.2144C87.9448 60.4139 87.68 59.6415 87.2262 58.9804L47.6251 1.77875C45.9838 -0.592917 42.0325 -0.592917 40.3869 1.77875L0.785747 58.9804C0.327363 59.6401 0.0585564 60.4129 0.00853151 61.2147C-0.0414933 62.0165 0.129177 62.8167 0.502 63.5284C0.874823 64.24 1.43554 64.8358 2.12323 65.2512C2.81092 65.6665 3.59927 65.8854 4.40265 65.8842Z" fill="white"/>
</svg>
