<svg width="31" height="36" viewBox="0 0 31 36" fill="none" xmlns="http://www.w3.org/2000/svg">
<g clip-path="url(#clip0_112_242)">
<path fill-rule="evenodd" clip-rule="evenodd" d="M8.4699 9.9482L9.18174 12.0398L9.53913 10.8006L9.36336 10.6102C9.28427 10.496 9.26669 10.3935 9.31063 10.3085C9.40437 10.121 9.60064 10.1562 9.78519 10.1562C9.97853 10.1562 10.2158 10.121 10.2744 10.3612C10.2949 10.4403 10.2685 10.5253 10.2129 10.6132L10.0371 10.8036L10.3945 12.0427L11.039 9.95113C11.5047 10.37 12.8786 10.4521 13.3883 10.7391C13.5495 10.8299 13.6959 10.9442 13.8131 11.0994C14.1763 11.5799 14.1763 11.6648 14.2379 12.2653C14.2115 12.5407 14.0562 12.7018 13.7457 12.7253H5.76022C5.45263 12.7018 5.29444 12.5436 5.26808 12.2653C5.3296 11.6648 5.3296 11.5769 5.69284 11.0994C5.81002 10.9442 5.95649 10.8299 6.1176 10.7391C6.63024 10.4491 8.00413 10.3642 8.4699 9.9482ZM20.9872 7.28246C20.6679 7.28246 20.4072 7.02174 20.4072 6.69658C20.4072 6.37435 20.6649 6.1107 20.9872 6.1107H25.8734C26.1927 6.1107 26.4534 6.37142 26.4534 6.69658C26.4534 7.01881 26.1956 7.28246 25.8734 7.28246H20.9872ZM0.689448 35.7414C0.48732 35.6477 0.343781 35.4456 0.343781 35.2054V0.585877C0.343781 0.263645 0.604496 0 0.929658 0H6.61267H29.9657C30.288 0 30.5516 0.260715 30.5516 0.585877V32.1442C30.5516 32.1764 30.5487 32.2057 30.5458 32.235C30.4637 33.3862 30.0888 34.2826 29.415 34.9241C28.7413 35.5628 27.7951 35.9201 26.5677 35.9904C26.5413 35.9934 26.5179 35.9963 26.4915 35.9963H1.1728C0.973599 35.9963 0.794906 35.8938 0.689448 35.7414ZM29.3828 32.1295V1.16883H6.61267H1.51261V34.8275H26.4886H26.5003C27.4406 34.7748 28.1437 34.5228 28.6094 34.0805C29.0693 33.644 29.3242 32.9908 29.3828 32.1295ZM5.27101 26.385C4.95171 26.385 4.69099 26.1243 4.69099 25.7991C4.69099 25.4769 4.94878 25.2132 5.27101 25.2132H25.9232C26.2425 25.2132 26.5032 25.4739 26.5032 25.7991C26.5032 26.1213 26.2454 26.385 25.9232 26.385H5.27101ZM5.36475 21.6101C5.04545 21.6101 4.78473 21.3494 4.78473 21.0242C4.78473 20.699 5.04252 20.4383 5.36475 20.4383H25.8705C26.1898 20.4383 26.4505 20.699 26.4505 21.0242C26.4505 21.3494 26.1927 21.6101 25.8705 21.6101H5.36475ZM5.27101 16.8323C4.95171 16.8323 4.69099 16.5715 4.69099 16.2464C4.69099 15.9212 4.94878 15.6605 5.27101 15.6605H14.0973C14.4166 15.6605 14.6773 15.9212 14.6773 16.2464C14.6773 16.5715 14.4195 16.8323 14.0973 16.8323H5.27101ZM16.3499 16.8323C16.0306 16.8323 15.7699 16.5715 15.7699 16.2464C15.7699 15.9212 16.0277 15.6605 16.3499 15.6605H25.8705C26.1898 15.6605 26.4505 15.9212 26.4505 16.2464C26.4505 16.5715 26.1927 16.8323 25.8705 16.8323H16.3499ZM17.3079 12.0574C16.9886 12.0574 16.7278 11.7966 16.7278 11.4715C16.7278 11.1492 16.9856 10.8856 17.3079 10.8856H25.8705C26.1898 10.8856 26.4505 11.1463 26.4505 11.4715C26.4505 11.7937 26.1927 12.0574 25.8705 12.0574H17.3079ZM20.9872 31.1599C20.6679 31.1599 20.4072 30.8992 20.4072 30.574C20.4072 30.2518 20.6649 29.9881 20.9872 29.9881H25.8734C26.1927 29.9881 26.4534 30.2488 26.4534 30.574C26.4534 30.8962 26.1956 31.1599 25.8734 31.1599H20.9872ZM8.08908 6.94558C8.15646 6.97194 8.22676 6.9778 8.3 6.96315L8.2004 6.1605C8.25312 5.9613 8.33222 5.80897 8.43768 5.69473C8.54606 5.57755 8.68667 5.50432 8.85072 5.47209C9.06749 5.45745 9.13487 5.61563 9.35164 5.75332C10.0137 6.17515 10.5732 6.31869 11.3905 6.33041L11.2587 7.00123C11.2938 7.00416 11.329 7.00416 11.3641 6.9983C11.3729 7.00123 11.3846 7.00123 11.3934 7.00123C11.5428 6.98659 11.6366 7.00416 11.6629 7.05982C11.6981 7.13013 11.6688 7.26488 11.575 7.48458L11.1269 8.22279C10.9599 8.49815 10.79 8.77351 10.5732 8.97564C10.3652 9.17191 10.1074 9.3008 9.7559 9.3008C9.43074 9.3008 9.18467 9.17484 8.98254 8.99029C8.77456 8.79988 8.60465 8.53916 8.44646 8.28431L8.04807 7.65156L8.04514 7.64863C7.9221 7.46408 7.85766 7.30296 7.8518 7.17993C7.8518 7.13599 7.85766 7.0979 7.8723 7.06568C7.88695 7.03639 7.90746 7.01295 7.93382 6.99245C7.97483 6.96901 8.02463 6.95143 8.08908 6.94558ZM11.66 6.83133L11.6864 5.78261C11.6571 5.36371 11.5194 5.04733 11.2968 4.81005C10.7548 4.22418 9.74418 4.07478 8.97961 4.35014C8.85072 4.39701 8.73061 4.4556 8.6193 4.5259C8.30292 4.72803 8.051 5.01804 7.94847 5.38128C7.92503 5.46624 7.90746 5.55412 7.89867 5.63907C7.88109 6.00524 7.89281 6.44465 7.91917 6.79032C7.88695 6.80204 7.85766 6.81961 7.83129 6.83719C7.77271 6.8782 7.72876 6.928 7.69947 6.98952C7.67311 7.0481 7.65846 7.11548 7.66139 7.18872C7.66725 7.3469 7.74048 7.54317 7.88402 7.75702L8.28242 8.38976C8.44939 8.65341 8.62516 8.92584 8.85365 9.13383C9.088 9.34767 9.37508 9.49414 9.7559 9.49414C10.1631 9.49414 10.4619 9.34474 10.705 9.11625C10.9394 8.89655 11.1151 8.60947 11.2909 8.32239L11.745 7.57539C11.7479 7.57247 11.7479 7.56661 11.7508 7.56368C11.8709 7.28831 11.9002 7.0979 11.8358 6.97194C11.7977 6.90456 11.742 6.85477 11.66 6.83133Z" fill="white"/>
</g>
<defs>
<clipPath id="clip0_112_242">
<rect width="30.2078" height="35.9963" fill="white" transform="translate(0.343781)"/>
</clipPath>
</defs>
</svg>
