<svg width="760" height="828" viewBox="0 0 760 828" fill="none" xmlns="http://www.w3.org/2000/svg">
<path fill-rule="evenodd" clip-rule="evenodd" d="M571.173 24.9867C568.702 21.5869 565.462 18.8194 561.717 16.9101C557.973 15.0008 553.83 14.0036 549.627 14H93.8667C72.6494 14 52.3011 22.4285 37.2982 37.4315C22.2952 52.4344 13.8667 72.7827 13.8667 94V734C13.8667 755.217 22.2952 775.566 37.2982 790.569C52.3011 805.571 72.6494 814 93.8667 814H665.973C687.191 814 707.539 805.571 722.542 790.569C737.545 775.566 745.973 755.217 745.973 734V274C745.974 268.367 744.191 262.877 740.88 258.32L571.173 24.9867ZM536.027 67.3333L692.64 282.667V734C692.64 741.072 689.83 747.855 684.83 752.856C679.829 757.857 673.046 760.667 665.973 760.667H93.8667C86.7943 760.667 80.0115 757.857 75.0105 752.856C70.0095 747.855 67.2 741.072 67.2 734V94C67.2 86.9276 70.0095 80.1448 75.0105 75.1438C80.0115 70.1428 86.7943 67.3333 93.8667 67.3333H536.027Z" fill="white" stroke="white" stroke-width="26.6667"/>
<path fill-rule="evenodd" clip-rule="evenodd" d="M719.307 285.52H576.293V40.6667C576.293 33.5942 573.484 26.8115 568.483 21.8105C563.482 16.8095 556.699 14 549.627 14C542.554 14 535.771 16.8095 530.77 21.8105C525.77 26.8115 522.96 33.5942 522.96 40.6667V312.187C522.96 319.259 525.77 326.042 530.77 331.043C535.771 336.044 542.554 338.853 549.627 338.853H719.307C726.379 338.853 733.162 336.044 738.163 331.043C743.164 326.042 745.973 319.259 745.973 312.187C745.973 305.114 743.164 298.331 738.163 293.33C733.162 288.33 726.379 285.52 719.307 285.52Z" fill="white" stroke="white" stroke-width="26.6667"/>
<path fill-rule="evenodd" clip-rule="evenodd" d="M186.667 391.04H424.24C431.312 391.04 438.095 388.23 443.096 383.229C448.097 378.228 450.907 371.446 450.907 364.373C450.907 357.301 448.097 350.518 443.096 345.517C438.095 340.516 431.312 337.707 424.24 337.707H186.667C179.594 337.707 172.811 340.516 167.811 345.517C162.81 350.518 160 357.301 160 364.373C160 371.446 162.81 378.228 167.811 383.229C172.811 388.23 179.594 391.04 186.667 391.04Z" fill="white" stroke="white" stroke-width="26.6667"/>
<path fill-rule="evenodd" clip-rule="evenodd" d="M186.667 529.373H424.24C431.312 529.373 438.095 526.564 443.096 521.563C448.097 516.562 450.907 509.779 450.907 502.707C450.907 495.634 448.097 488.851 443.096 483.851C438.095 478.85 431.312 476.04 424.24 476.04H186.667C179.594 476.04 172.811 478.85 167.811 483.851C162.81 488.851 160 495.634 160 502.707C160 509.779 162.81 516.562 167.811 521.563C172.811 526.564 179.594 529.373 186.667 529.373Z" fill="white" stroke="white" stroke-width="26.6667"/>
<path fill-rule="evenodd" clip-rule="evenodd" d="M186.667 667.707H526.053C533.126 667.707 539.909 664.897 544.91 659.896C549.911 654.895 552.72 648.113 552.72 641.04C552.72 633.968 549.911 627.185 544.91 622.184C539.909 617.183 533.126 614.374 526.053 614.374H186.667C179.594 614.374 172.811 617.183 167.811 622.184C162.81 627.185 160 633.968 160 641.04C160 648.113 162.81 654.895 167.811 659.896C172.811 664.897 179.594 667.707 186.667 667.707Z" fill="white" stroke="white" stroke-width="26.6667"/>
<path d="M215.555 267.36C205.052 267.36 195.583 265.827 187.15 262.76C178.717 259.77 171.51 255.438 165.53 249.765C159.627 244.015 155.103 237.077 151.96 228.95C148.817 220.823 147.245 211.662 147.245 201.465C147.245 190.042 148.893 179.577 152.19 170.07C155.563 160.563 160.47 152.36 166.91 145.46C173.427 138.483 181.362 133.117 190.715 129.36C200.068 125.603 210.763 123.725 222.8 123.725C228.933 123.725 234.568 124.377 239.705 125.68C244.918 126.907 249.403 128.555 253.16 130.625C256.993 132.695 259.945 134.995 262.015 137.525C264.162 140.055 265.235 142.623 265.235 145.23C265.235 148.373 264.392 150.712 262.705 152.245C261.018 153.778 258.948 154.545 256.495 154.545C254.502 154.545 252.662 154.085 250.975 153.165C249.365 152.245 247.41 151.21 245.11 150.06C242.81 148.833 239.782 147.76 236.025 146.84C232.268 145.92 227.362 145.46 221.305 145.46C216.245 145.46 211.262 146.533 206.355 148.68C201.448 150.827 197.04 154.047 193.13 158.34C189.22 162.557 186.077 167.808 183.7 174.095C181.4 180.305 180.25 187.512 180.25 195.715C180.25 201.925 181.055 207.867 182.665 213.54C184.275 219.213 186.728 224.273 190.025 228.72C193.398 233.09 197.653 236.54 202.79 239.07C207.927 241.6 214.022 242.865 221.075 242.865C226.442 242.865 231.042 242.175 234.875 240.795C238.708 239.338 242.005 237.652 244.765 235.735C247.525 233.818 250.017 232.17 252.24 230.79C254.463 229.333 256.61 228.605 258.68 228.605C262.743 228.605 265.542 229.563 267.075 231.48C268.608 233.32 269.375 235.927 269.375 239.3C269.375 242.75 268.072 246.162 265.465 249.535C262.858 252.832 259.14 255.822 254.31 258.505C249.557 261.188 243.883 263.335 237.29 264.945C230.697 266.555 223.452 267.36 215.555 267.36ZM370.354 263.105C366.751 263.105 363.224 261.763 359.774 259.08C356.401 256.397 353.142 253.023 349.999 248.96C346.932 244.82 344.096 240.565 341.489 236.195C339.189 232.592 336.621 228.068 333.784 222.625C331.024 217.105 328.187 211.087 325.274 204.57C322.361 197.977 319.562 191.307 316.879 184.56C314.196 177.737 311.781 171.22 309.634 165.01C307.487 158.723 305.762 153.127 304.459 148.22C303.232 143.237 302.619 139.403 302.619 136.72C302.619 132.12 304.152 128.632 307.219 126.255C310.362 123.802 314.311 122.575 319.064 122.575C323.204 122.575 326.769 123.572 329.759 125.565C332.749 127.482 334.972 130.74 336.429 135.34C337.962 140.707 339.687 146.763 341.604 153.51C343.597 160.257 345.629 167.118 347.699 174.095C349.846 180.995 351.954 187.588 354.024 193.875C356.094 200.162 357.972 205.49 359.659 209.86C362.112 215.993 364.297 220.862 366.214 224.465C368.131 228.068 369.817 229.87 371.274 229.87C372.884 229.87 374.992 228.183 377.599 224.81C380.282 221.36 383.234 216.722 386.454 210.895C388.984 206.678 391.629 201.81 394.389 196.29C397.226 190.693 400.101 184.752 403.014 178.465C405.927 172.178 408.764 165.815 411.524 159.375C414.284 152.935 416.814 146.725 419.114 140.745C420.724 136.605 422.526 133.462 424.519 131.315C426.512 129.168 428.736 127.673 431.189 126.83C433.719 125.987 436.441 125.565 439.354 125.565C442.267 125.565 444.836 126.178 447.059 127.405C449.282 128.555 451.007 130.127 452.234 132.12C453.537 134.037 454.189 136.26 454.189 138.79C454.189 141.473 453.307 145.23 451.544 150.06C449.857 154.89 447.557 160.372 444.644 166.505C441.807 172.638 438.549 179.04 434.869 185.71C431.266 192.38 427.509 198.973 423.599 205.49C419.766 211.93 416.009 217.91 412.329 223.43C408.726 228.873 405.467 233.473 402.554 237.23C399.027 241.677 395.424 245.893 391.744 249.88C388.141 253.79 384.537 256.972 380.934 259.425C377.331 261.878 373.804 263.105 370.354 263.105Z" fill="white"/>
<path d="M187.15 262.76L188.175 259.941L188.164 259.936L188.152 259.932L187.15 262.76ZM165.53 249.765L163.437 251.914L163.451 251.928L163.465 251.941L165.53 249.765ZM151.96 228.95L149.162 230.032L149.162 230.032L151.96 228.95ZM152.19 170.07L149.363 169.067L149.359 169.077L149.356 169.087L152.19 170.07ZM166.91 145.46L164.718 143.412L164.717 143.413L166.91 145.46ZM239.705 125.68L238.967 128.588L238.992 128.594L239.018 128.6L239.705 125.68ZM253.16 130.625L251.712 133.253L251.723 133.259L251.735 133.265L253.16 130.625ZM262.015 137.525L259.693 139.425L259.71 139.445L259.727 139.466L262.015 137.525ZM262.705 152.245L260.687 150.025L260.687 150.025L262.705 152.245ZM250.975 153.165L249.487 155.77L249.512 155.784L249.538 155.799L250.975 153.165ZM245.11 150.06L243.698 152.707L243.733 152.726L243.768 152.743L245.11 150.06ZM236.025 146.84L235.311 149.754L235.311 149.754L236.025 146.84ZM193.13 158.34L195.33 160.38L195.339 160.37L195.348 160.36L193.13 158.34ZM183.7 174.095L180.894 173.034L180.89 173.044L180.887 173.053L183.7 174.095ZM190.025 228.72L187.615 230.507L187.632 230.53L187.65 230.553L190.025 228.72ZM202.79 239.07L201.464 241.761L201.464 241.761L202.79 239.07ZM234.875 240.795L235.891 243.618L235.916 243.609L235.941 243.599L234.875 240.795ZM244.765 235.735L246.476 238.199L246.476 238.199L244.765 235.735ZM252.24 230.79L253.822 233.339L253.853 233.32L253.884 233.299L252.24 230.79ZM267.075 231.48L264.732 233.354L264.751 233.378L264.77 233.401L267.075 231.48ZM265.465 249.535L267.818 251.396L267.829 251.383L267.839 251.369L265.465 249.535ZM254.31 258.505L252.853 255.883L252.844 255.887L252.835 255.893L254.31 258.505ZM237.29 264.945L236.578 262.031L236.578 262.031L237.29 264.945ZM215.555 264.36C205.343 264.36 196.229 262.869 188.175 259.941L186.125 265.579C194.937 268.784 204.76 270.36 215.555 270.36V264.36ZM188.152 259.932C180.081 257.071 173.245 252.949 167.595 247.589L163.465 251.941C169.775 257.928 177.353 262.469 186.148 265.588L188.152 259.932ZM167.623 247.616C162.046 242.184 157.755 235.616 154.758 227.868L149.162 230.032C152.452 238.537 157.207 245.846 163.437 251.914L167.623 247.616ZM154.758 227.868C151.769 220.14 150.245 211.353 150.245 201.465H144.245C144.245 211.97 145.865 221.507 149.162 230.032L154.758 227.868ZM150.245 201.465C150.245 190.332 151.851 180.204 155.024 171.053L149.356 169.087C145.936 178.949 144.245 189.752 144.245 201.465H150.245ZM155.017 171.073C158.263 161.927 162.963 154.086 169.103 147.507L164.717 143.413C157.977 150.634 152.864 159.199 149.363 169.067L155.017 171.073ZM169.102 147.508C175.303 140.87 182.864 135.746 191.833 132.144L189.597 126.576C179.859 130.487 171.551 136.097 164.718 143.412L169.102 147.508ZM191.833 132.144C200.769 128.555 211.074 126.725 222.8 126.725V120.725C210.453 120.725 199.368 122.652 189.597 126.576L191.833 132.144ZM222.8 126.725C228.723 126.725 234.106 127.354 238.967 128.588L240.443 122.772C235.031 121.399 229.144 120.725 222.8 120.725V126.725ZM239.018 128.6C244.028 129.779 248.245 131.342 251.712 133.253L254.608 127.997C250.561 125.768 245.808 124.034 240.392 122.76L239.018 128.6ZM251.735 133.265C255.332 135.207 257.938 137.28 259.693 139.425L264.337 135.625C261.952 132.71 258.655 130.183 254.585 127.985L251.735 133.265ZM259.727 139.466C261.543 141.605 262.235 143.511 262.235 145.23H268.235C268.235 141.736 266.781 138.505 264.303 135.584L259.727 139.466ZM262.235 145.23C262.235 147.86 261.539 149.251 260.687 150.025L264.723 154.465C267.245 152.173 268.235 148.887 268.235 145.23H262.235ZM260.687 150.025C259.597 151.016 258.264 151.545 256.495 151.545V157.545C259.633 157.545 262.44 156.54 264.723 154.465L260.687 150.025ZM256.495 151.545C254.984 151.545 253.641 151.202 252.412 150.531L249.538 155.799C251.683 156.968 254.019 157.545 256.495 157.545V151.545ZM252.463 150.56C250.791 149.605 248.784 148.543 246.452 147.377L243.768 152.743C246.036 153.877 247.939 154.885 249.487 155.77L252.463 150.56ZM246.522 147.413C243.923 146.027 240.633 144.88 236.739 143.926L235.311 149.754C238.93 150.64 241.697 151.64 243.698 152.707L246.522 147.413ZM236.739 143.926C232.656 142.926 227.483 142.46 221.305 142.46V148.46C227.24 148.46 231.881 148.914 235.311 149.754L236.739 143.926ZM221.305 142.46C215.807 142.46 210.416 143.629 205.153 145.932L207.557 151.428C212.107 149.438 216.683 148.46 221.305 148.46V142.46ZM205.153 145.932C199.828 148.261 195.081 151.742 190.912 156.32L195.348 160.36C198.999 156.352 203.068 153.392 207.557 151.428L205.153 145.932ZM190.93 156.3C186.716 160.845 183.385 166.445 180.894 173.034L186.506 175.156C188.769 169.171 191.724 164.269 195.33 160.38L190.93 156.3ZM180.887 173.053C178.438 179.666 177.25 187.238 177.25 195.715H183.25C183.25 187.785 184.362 180.944 186.513 175.137L180.887 173.053ZM177.25 195.715C177.25 202.187 178.089 208.405 179.779 214.359L185.551 212.721C184.021 207.328 183.25 201.663 183.25 195.715H177.25ZM179.779 214.359C181.481 220.358 184.089 225.75 187.615 230.507L192.435 226.933C189.368 222.796 187.069 218.069 185.551 212.721L179.779 214.359ZM187.65 230.553C191.314 235.299 195.933 239.037 201.464 241.761L204.116 236.379C199.374 234.043 195.483 230.881 192.4 226.887L187.65 230.553ZM201.464 241.761C207.098 244.536 213.666 245.865 221.075 245.865V239.865C214.377 239.865 208.755 238.664 204.116 236.379L201.464 241.761ZM221.075 245.865C226.684 245.865 231.647 245.146 235.891 243.618L233.859 237.972C230.436 239.204 226.199 239.865 221.075 239.865V245.865ZM235.941 243.599C239.954 242.074 243.477 240.282 246.476 238.199L243.054 233.271C240.533 235.022 237.463 236.602 233.809 237.991L235.941 243.599ZM246.476 238.199C249.205 236.304 251.653 234.685 253.822 233.339L250.658 228.241C248.381 229.655 245.845 231.333 243.054 233.271L246.476 238.199ZM253.884 233.299C255.756 232.073 257.339 231.605 258.68 231.605V225.605C255.881 225.605 253.17 226.594 250.596 228.281L253.884 233.299ZM258.68 231.605C262.419 231.605 264.055 232.507 264.732 233.354L269.418 229.606C267.029 226.62 263.068 225.605 258.68 225.605V231.605ZM264.77 233.401C265.702 234.518 266.375 236.346 266.375 239.3H272.375C272.375 235.508 271.515 232.122 269.38 229.559L264.77 233.401ZM266.375 239.3C266.375 241.942 265.39 244.726 263.091 247.701L267.839 251.369C270.754 247.597 272.375 243.558 272.375 239.3H266.375ZM263.112 247.674C260.815 250.579 257.44 253.334 252.853 255.883L255.767 261.127C260.84 258.309 264.902 255.084 267.818 251.396L263.112 247.674ZM252.835 255.893C248.371 258.413 242.967 260.471 236.578 262.031L238.002 267.859C244.8 266.199 250.742 263.964 255.785 261.117L252.835 255.893ZM236.578 262.031C230.252 263.575 223.25 264.36 215.555 264.36V270.36C223.653 270.36 231.141 269.535 238.002 267.859L236.578 262.031ZM359.774 259.08L357.906 261.428L357.919 261.438L357.932 261.448L359.774 259.08ZM349.999 248.96L347.588 250.746L347.607 250.771L347.626 250.796L349.999 248.96ZM341.489 236.195L344.065 234.658L344.042 234.619L344.018 234.581L341.489 236.195ZM333.784 222.625L331.101 223.967L331.112 223.989L331.124 224.011L333.784 222.625ZM325.274 204.57L322.53 205.783L322.535 205.794L325.274 204.57ZM316.879 184.56L314.087 185.658L314.091 185.669L316.879 184.56ZM309.634 165.01L306.795 165.979L306.799 165.99L309.634 165.01ZM304.459 148.22L301.546 148.937L301.552 148.964L301.56 148.99L304.459 148.22ZM307.219 126.255L309.057 128.626L309.065 128.62L307.219 126.255ZM329.759 125.565L328.095 128.061L328.117 128.076L328.14 128.091L329.759 125.565ZM336.429 135.34L339.314 134.516L339.302 134.475L339.289 134.434L336.429 135.34ZM341.604 153.51L338.718 154.33L338.722 154.345L338.727 154.36L341.604 153.51ZM347.699 174.095L344.823 174.948L344.829 174.967L344.834 174.986L347.699 174.095ZM354.024 193.875L351.174 194.813L351.174 194.813L354.024 193.875ZM359.659 209.86L356.86 210.94L356.867 210.957L356.874 210.974L359.659 209.86ZM366.214 224.465L363.565 225.874L363.565 225.874L366.214 224.465ZM377.599 224.81L375.231 222.968L375.225 222.976L377.599 224.81ZM386.454 210.895L383.882 209.352L383.854 209.397L383.828 209.444L386.454 210.895ZM394.389 196.29L391.713 194.934L391.709 194.941L391.706 194.948L394.389 196.29ZM403.014 178.465L405.736 179.726L405.736 179.726L403.014 178.465ZM411.524 159.375L408.767 158.193L408.767 158.193L411.524 159.375ZM419.114 140.745L416.318 139.658L416.314 139.668L419.114 140.745ZM424.519 131.315L426.717 133.356L426.717 133.356L424.519 131.315ZM431.189 126.83L430.24 123.984L430.227 123.988L430.214 123.993L431.189 126.83ZM447.059 127.405L445.61 130.032L445.645 130.051L445.681 130.07L447.059 127.405ZM452.234 132.12L449.679 133.692L449.715 133.75L449.753 133.807L452.234 132.12ZM451.544 150.06L448.726 149.031L448.719 149.051L448.712 149.071L451.544 150.06ZM444.644 166.505L441.934 165.218L441.928 165.232L441.921 165.246L444.644 166.505ZM434.869 185.71L432.242 184.261L432.236 184.272L432.23 184.284L434.869 185.71ZM423.599 205.49L421.026 203.946L421.021 203.956L423.599 205.49ZM412.329 223.43L409.833 221.766L409.827 221.774L412.329 223.43ZM402.554 237.23L404.904 239.094L404.915 239.081L404.925 239.068L402.554 237.23ZM391.744 249.88L389.54 247.845L389.538 247.847L391.744 249.88ZM380.934 259.425L379.246 256.945L380.934 259.425ZM370.354 260.105C367.551 260.105 364.655 259.075 361.616 256.712L357.932 261.448C361.793 264.451 365.951 266.105 370.354 266.105V260.105ZM361.642 256.732C358.488 254.224 355.395 251.032 352.372 247.124L347.626 250.796C350.89 255.014 354.313 258.569 357.906 261.428L361.642 256.732ZM352.41 247.174C349.402 243.113 346.62 238.941 344.065 234.658L338.913 237.732C341.571 242.189 344.463 246.527 347.588 250.746L352.41 247.174ZM344.018 234.581C341.78 231.076 339.256 226.635 336.444 221.239L331.124 224.011C333.985 229.502 336.598 234.108 338.96 237.809L344.018 234.581ZM336.467 221.283C333.729 215.807 330.911 209.829 328.013 203.346L322.535 205.794C325.464 212.345 328.319 218.403 331.101 223.967L336.467 221.283ZM328.018 203.358C325.12 196.799 322.336 190.163 319.667 183.451L314.091 185.669C316.788 192.45 319.601 199.155 322.53 205.782L328.018 203.358ZM319.671 183.462C317.001 176.673 314.601 170.196 312.469 164.03L306.799 165.99C308.96 172.244 311.39 178.8 314.087 185.658L319.671 183.462ZM312.473 164.041C310.342 157.801 308.639 152.273 307.358 147.45L301.56 148.99C302.885 153.981 304.632 159.646 306.795 165.979L312.473 164.041ZM307.372 147.503C306.161 142.582 305.619 139.033 305.619 136.72H299.619C299.619 139.774 300.304 143.891 301.546 148.937L307.372 147.503ZM305.619 136.72C305.619 132.854 306.863 130.326 309.057 128.626L305.381 123.884C301.441 126.937 299.619 131.386 299.619 136.72H305.619ZM309.065 128.62C311.585 126.653 314.846 125.575 319.064 125.575V119.575C313.775 119.575 309.14 120.95 305.373 123.89L309.065 128.62ZM319.064 125.575C322.704 125.575 325.669 126.444 328.095 128.061L331.423 123.069C327.869 120.699 323.704 119.575 319.064 119.575V125.575ZM328.14 128.091C330.358 129.512 332.248 132.075 333.569 136.246L339.289 134.434C337.697 129.405 335.14 125.451 331.378 123.039L328.14 128.091ZM333.544 136.164C335.077 141.529 336.802 147.584 338.718 154.33L344.49 152.69C342.573 145.942 340.847 139.884 339.314 134.516L333.544 136.164ZM338.727 154.36C340.721 161.108 342.753 167.971 344.823 174.948L350.575 173.242C348.505 166.266 346.474 159.405 344.481 152.66L338.727 154.36ZM344.834 174.986C346.986 181.901 349.099 188.51 351.174 194.813L356.873 192.937C354.809 186.667 352.706 180.089 350.564 173.204L344.834 174.986ZM351.174 194.813C353.254 201.13 355.15 206.509 356.86 210.94L362.458 208.78C360.795 204.471 358.934 199.193 356.873 192.937L351.174 194.813ZM356.874 210.974C359.346 217.155 361.577 222.135 363.565 225.874L368.863 223.056C367.018 219.588 364.879 214.832 362.444 208.746L356.874 210.974ZM363.565 225.874C364.578 227.778 365.624 229.391 366.726 230.569C367.764 231.677 369.294 232.87 371.274 232.87V226.87C371.798 226.87 371.756 227.162 371.107 226.468C370.523 225.845 369.766 224.755 368.863 223.056L363.565 225.874ZM371.274 232.87C373.088 232.87 374.68 231.953 375.937 230.948C377.252 229.895 378.597 228.424 379.973 226.644L375.225 222.976C373.994 224.569 372.982 225.628 372.189 226.262C371.337 226.944 371.07 226.87 371.274 226.87V232.87ZM379.967 226.652C382.782 223.032 385.819 218.247 389.08 212.346L383.828 209.444C380.649 215.197 377.783 219.688 375.231 222.968L379.967 226.652ZM389.026 212.438C391.604 208.142 394.286 203.204 397.072 197.632L391.706 194.948C388.972 200.416 386.364 205.215 383.882 209.352L389.026 212.438ZM397.065 197.646C399.919 192.015 402.809 186.042 405.736 179.726L400.292 177.204C397.392 183.462 394.532 189.371 391.713 194.934L397.065 197.646ZM405.736 179.726C408.662 173.413 411.51 167.023 414.281 160.557L408.767 158.193C406.018 164.607 403.193 170.944 400.292 177.204L405.736 179.726ZM414.281 160.557C417.055 154.085 419.599 147.84 421.914 141.822L416.314 139.668C414.029 145.61 411.513 151.785 408.767 158.193L414.281 160.557ZM421.91 141.832C423.447 137.881 425.079 135.121 426.717 133.356L422.321 129.274C419.972 131.803 418.001 135.329 416.318 139.658L421.91 141.832ZM426.717 133.356C428.419 131.524 430.235 130.33 432.164 129.667L430.214 123.993C427.236 125.017 424.606 126.812 422.321 129.274L426.717 133.356ZM432.138 129.676C434.335 128.944 436.733 128.565 439.354 128.565V122.565C436.148 122.565 433.103 123.03 430.24 123.984L432.138 129.676ZM439.354 128.565C441.836 128.565 443.892 129.084 445.61 130.032L448.508 124.778C445.779 123.273 442.699 122.565 439.354 122.565V128.565ZM445.681 130.07C447.455 130.987 448.758 132.196 449.679 133.692L454.789 130.548C453.257 128.058 451.11 126.123 448.437 124.74L445.681 130.07ZM449.753 133.807C450.687 135.18 451.189 136.804 451.189 138.79H457.189C457.189 135.716 456.387 132.893 454.715 130.433L449.753 133.807ZM451.189 138.79C451.189 140.932 450.458 144.286 448.726 149.031L454.362 151.089C456.156 146.174 457.189 142.014 457.189 138.79H451.189ZM448.712 149.071C447.07 153.773 444.815 159.152 441.934 165.218L447.354 167.792C450.299 161.591 452.645 156.007 454.376 151.049L448.712 149.071ZM441.921 165.246C439.118 171.307 435.892 177.645 432.242 184.261L437.496 187.159C441.206 180.435 444.497 173.97 447.367 167.764L441.921 165.246ZM432.23 184.284C428.648 190.914 424.913 197.468 421.027 203.947L426.171 207.033C430.105 200.478 433.884 193.846 437.508 187.136L432.23 184.284ZM421.021 203.956C417.211 210.357 413.481 216.293 409.833 221.766L414.825 225.094C418.537 219.527 422.321 213.503 426.177 207.024L421.021 203.956ZM409.827 221.774C406.251 227.176 403.037 231.711 400.183 235.392L404.925 239.068C407.897 235.235 411.2 230.571 414.831 225.086L409.827 221.774ZM400.203 235.366C396.721 239.756 393.167 243.916 389.54 247.845L393.948 251.915C397.681 247.871 401.333 243.597 404.904 239.094L400.203 235.366ZM389.538 247.847C386.057 251.624 382.624 254.645 379.246 256.945L382.622 261.905C386.451 259.298 390.224 255.956 393.95 251.913L389.538 247.847ZM379.246 256.945C376.009 259.149 373.06 260.105 370.354 260.105V266.105C374.548 266.105 378.652 264.608 382.622 261.905L379.246 256.945Z" fill="white"/>
</svg>
