<svg width="46" height="36" viewBox="0 0 46 36" fill="none" xmlns="http://www.w3.org/2000/svg">
<path fill-rule="evenodd" clip-rule="evenodd" d="M9.12412 9.73402e-07H36.2653C37.252 -2.15243e-05 38.1036 -4.4231e-05 38.8084 0.0480333C39.5504 0.0986756 40.2926 0.21004 41.026 0.513759C42.6796 1.19877 43.9937 2.5127 44.6785 4.16646C44.9822 4.89973 45.0936 5.64195 45.1445 6.38399C45.1924 7.08875 45.1924 7.94025 45.1924 8.92711V27.0692C45.1924 28.056 45.1924 28.9075 45.1445 29.6124C45.0936 30.3543 44.9822 31.0965 44.6785 31.83C43.9937 33.4835 42.6796 34.7976 41.026 35.4825C40.2926 35.7862 39.5504 35.8975 38.8084 35.9484C38.1036 35.9963 37.252 35.9963 36.2653 35.9963H9.1241C8.13724 35.9963 7.28574 35.9963 6.58098 35.9484C5.83894 35.8975 5.09672 35.7862 4.36345 35.4825C2.70969 34.7976 1.39576 33.4835 0.710749 31.83C0.40703 31.0965 0.295667 30.3543 0.245024 29.6124C0.196947 28.9075 0.196969 28.056 0.196992 27.0692V8.92713C0.196969 7.94027 0.196947 7.08875 0.245024 6.38399C0.295667 5.64195 0.40703 4.89973 0.710749 4.16646C1.39576 2.5127 2.70969 1.19877 4.36345 0.513759C5.09672 0.21004 5.83894 0.0986756 6.58098 0.0480333C7.28574 -4.4231e-05 8.13726 -2.15243e-05 9.12412 9.73402e-07ZM5.41072 5.12446C6.22894 4.18939 7.65025 4.09463 8.58535 4.91282L21.2132 15.9621C22.0614 16.7043 23.328 16.7043 24.1762 15.9621L36.8041 4.91282C37.7391 4.09463 39.1605 4.18939 39.9785 5.12446C40.7968 6.05955 40.7021 7.48087 39.7671 8.29906L27.1391 19.3485C24.5944 21.5751 20.795 21.5751 18.2503 19.3485L5.62238 8.29906C4.68728 7.48087 4.59252 6.05955 5.41072 5.12446Z" fill="white"/>
</svg>
