<svg width="40" height="36" viewBox="0 0 40 36" fill="none" xmlns="http://www.w3.org/2000/svg">
<path d="M0.497046 11.7092H8.89727V36H0.497046V11.7092ZM4.75338 0C1.87834 0 0 1.8137 0 4.19425C0 6.52583 1.82337 8.39226 4.64345 8.39226H4.69702C7.62703 8.39226 9.45171 6.52574 9.45171 4.19425C9.39674 1.8137 7.62712 0 4.75338 0ZM29.5221 11.1386C25.0632 11.1386 23.0656 13.4953 21.9512 15.148V11.7092H13.5485C13.6597 13.988 13.5485 36 13.5485 36H21.9512V22.4343C21.9512 21.7078 22.0062 20.9839 22.2273 20.4634C22.8356 19.013 24.2181 17.511 26.5372 17.511C29.5797 17.511 30.7948 19.7395 30.7948 23.0035V35.9999H39.1962V22.0711C39.1962 14.6101 35.0525 11.1386 29.5221 11.1386Z" fill="white"/>
</svg>
