<svg width="801" height="543" viewBox="0 0 801 543" fill="none" xmlns="http://www.w3.org/2000/svg">
<path d="M800.017 408.95V108.048L599.897 274.5L800.017 408.95Z" fill="white"/>
<path d="M0 108.116V408.864L200.086 274.5L0 108.116Z" fill="white"/>
<path d="M473.916 379.284C454.024 395.826 427.811 404.861 399.966 404.861C372.206 404.861 345.907 395.826 326.084 379.284L236.881 305.042L0 464.09V520.107C0 532.784 10.3238 542.987 23.1384 542.987H776.879C789.608 542.987 800.017 532.784 800.017 520.107V464.159L563.154 305.042L473.916 379.284Z" fill="white"/>
<path d="M776.879 0H23.1384C10.3238 0 0 10.2036 0 22.8463V48.3896L355.87 344.31C367.259 353.723 383.303 359.134 399.966 359.134C416.628 359.134 432.706 353.723 444.044 344.31L800.017 48.3209V22.8463C800.017 10.2036 789.608 0 776.879 0Z" fill="white"/>
</svg>
