<svg width="800" height="800" viewBox="0 0 800 800" fill="none" xmlns="http://www.w3.org/2000/svg">
<g clip-path="url(#clip0_130_326)">
<path d="M297.652 382.3C279.917 389.452 262.048 396.273 244.38 403.595C227.449 410.608 210.331 417.742 194.516 427.061C188.657 430.307 183.255 434.318 178.451 438.986C173.735 444 169.734 449.639 166.558 455.745C157.172 473.118 150.894 492.236 143.769 510.597C132.509 539.622 123.267 569.571 114.292 599.363C109.722 613.327 105.994 627.553 103.127 641.963C101.399 651.622 100.237 661.374 99.648 671.169C98.8445 680.293 99.8244 689.485 102.533 698.234C109.09 716.382 122.446 731.269 139.778 739.749C155.329 747.11 171.37 753.391 187.786 758.546C191.072 759.643 194.37 760.708 197.689 761.71C204.563 763.781 207.499 753.04 200.648 750.974C185.063 746.28 169.744 740.746 154.758 734.396C139.594 727.962 126.039 719.152 117.573 704.547C113.157 697.056 110.741 688.554 110.56 679.859C110.532 671.121 111.174 662.394 112.48 653.754C114.748 639.175 118.104 624.785 122.52 610.707C131.384 580.557 140.916 550.469 151.719 520.953C157.796 504.344 163.979 487.581 171.24 471.451C174.056 464.878 177.491 458.587 181.498 452.665C183.11 450.384 184.918 448.248 186.9 446.28C187.855 445.331 188.85 444.424 189.882 443.56C190.156 443.328 190.434 443.096 190.713 442.883C191.425 442.312 190.11 443.332 190.84 442.783C191.502 442.287 192.172 441.8 192.851 441.324C206.154 432.001 221.498 425.403 236.341 418.983C253.715 411.469 271.375 404.641 288.974 397.678C292.859 396.143 296.739 394.597 300.612 393.04C302.01 392.609 303.192 391.66 303.915 390.387C304.638 389.114 304.847 387.613 304.501 386.191C304.1 384.773 303.156 383.57 301.874 382.843C300.592 382.115 299.076 381.922 297.652 382.304V382.3Z" fill="white"/>
<path d="M499.319 393.035C516.497 399.963 533.801 406.577 550.926 413.642C567.305 420.032 583.242 427.501 598.633 435.999C601.597 437.711 604.514 439.51 607.311 441.486C609.439 442.951 611.418 444.62 613.221 446.47C617.464 450.874 621.017 455.895 623.757 461.362C632.691 477.901 638.64 496.081 645.421 513.545C656.321 541.635 665.283 570.598 674.038 599.424C678.479 612.954 682.23 626.7 685.277 640.611C687.009 649.473 688.223 658.429 688.914 667.433C689.942 675.764 689.489 684.212 687.575 692.385C682.844 709.191 669.689 722.644 654.287 730.251C639.567 737.163 624.393 743.062 608.87 747.91C605.695 748.968 602.511 749.997 599.305 750.96C592.464 753.022 595.379 763.769 602.265 761.696C618.535 756.754 634.527 750.936 650.168 744.267C657.263 741.486 664.022 737.918 670.32 733.628C678.627 727.74 685.689 720.269 691.101 711.644C696.442 703.068 699.62 693.322 700.361 683.245C700.733 674.35 700.262 665.439 698.953 656.632C696.868 640.986 693.515 625.534 688.927 610.431C679.882 579.353 670.065 548.38 658.944 517.986C652.578 500.592 646.033 483.079 638.454 466.17C632.637 453.196 625.501 441.023 613.835 432.523C600.467 422.782 584.701 416.082 569.608 409.544C551.346 401.63 532.799 394.411 514.294 387.093C510.285 385.507 506.279 383.909 502.276 382.3C500.852 381.917 499.336 382.11 498.054 382.838C496.772 383.565 495.828 384.769 495.427 386.187C495.071 387.609 495.276 389.114 496 390.39C496.725 391.665 497.914 392.612 499.319 393.035Z" fill="white"/>
<path d="M451.531 126.085C459.647 127.754 467.233 131.377 473.633 136.64C480.071 142.281 485.539 148.941 489.819 156.353C495.458 165.766 499.334 176.128 501.258 186.93C502.185 192.076 502.389 197.197 506.337 201.119C508.275 202.854 510.667 204.002 513.232 204.43C515.798 204.859 518.433 204.549 520.83 203.538C522.232 203.113 523.417 202.165 524.14 200.891C524.864 199.617 525.07 198.114 524.717 196.692C524.314 195.275 523.371 194.073 522.09 193.345C520.809 192.617 519.294 192.422 517.87 192.802C516.864 193.171 515.24 193.92 514.208 193.248C512.909 192.403 512.96 190.001 512.756 188.665C512.007 183.388 510.865 178.175 509.342 173.068C506.216 162.932 501.536 153.343 495.469 144.643C485.382 130.195 471.968 119.25 454.49 115.356C447.512 113.802 444.532 124.533 451.531 126.092V126.085Z" fill="white"/>
<path d="M406.485 115.085C396.784 113.383 386.94 112.635 377.093 112.854C367.454 112.624 357.83 113.727 348.492 116.131C339.244 118.82 331.404 124.999 326.629 133.363C321.946 141.362 319.305 150.365 314.745 158.445C309.749 167.298 303.216 175.547 294.004 180.23C287.617 183.477 293.244 193.083 299.624 189.841C316.491 181.259 324.92 163.9 332.093 147.399C335.44 139.703 339.306 132.28 347.168 128.478C354.903 124.742 364.286 124.406 372.717 124.1C383.013 123.551 393.339 124.13 403.509 125.828C404.931 126.18 406.434 125.973 407.707 125.25C408.981 124.526 409.929 123.342 410.355 121.94C410.735 120.517 410.54 119.002 409.813 117.721C409.086 116.44 407.885 115.496 406.468 115.092L406.485 115.085Z" fill="white"/>
<path d="M489.035 51.9855C506.48 59.5648 518.128 76.3792 526.303 92.9014C540.923 122.811 543.409 157.217 533.24 188.918C531.02 195.748 541.765 198.672 543.973 191.877C550.851 170.325 552.376 147.422 548.416 125.148C544.456 102.875 535.13 81.9012 521.245 64.0409C514.278 54.7573 505.146 47.3184 494.645 42.3723C493.36 41.6739 491.858 41.4916 490.443 41.8626C489.028 42.2336 487.808 43.13 487.031 44.3692C486.296 45.6464 486.094 47.1616 486.467 48.587C486.841 50.0124 487.761 51.2333 489.028 51.9855H489.035Z" fill="white"/>
<path d="M281.404 63.8948C270.975 75.1854 262.865 88.4142 257.534 102.83C251.69 119.487 249.173 137.129 250.127 154.755C250.718 167.081 252.391 179.331 255.125 191.364C256.665 198.359 267.4 195.4 265.86 188.405C258.615 155.535 258.383 119.756 275.784 89.9769C279.603 83.432 284.127 77.3254 289.275 71.7663C294.113 66.4947 286.26 58.6023 281.404 63.8948Z" fill="white"/>
<path d="M476.588 28.6796C468.007 19.3099 455.912 13.0433 444.269 8.39328C430.495 3.08552 415.891 0.255005 401.132 0.0324496C375.373 -0.561444 349.941 5.89429 327.584 18.7023C315.538 25.8468 304.709 34.8685 295.507 45.4268C290.794 50.7888 298.638 58.6928 303.379 53.2982C318.205 36.1715 337.578 23.5931 359.256 17.0185C384.009 9.32431 410.512 9.29925 435.28 16.9466C447.268 20.8104 460.096 27.1396 468.716 36.5511C473.564 41.8482 481.419 33.9605 476.588 28.6796Z" fill="white"/>
<path d="M440.545 120.136C437.008 109.004 427.499 100.724 417.079 96.0555C405.134 90.6975 391.862 89.0228 378.96 91.2455C377.543 91.6479 376.341 92.5914 375.614 93.8723C374.887 95.1533 374.692 96.6688 375.073 98.0918C375.494 99.4965 376.441 100.684 377.716 101.409C378.992 102.133 380.497 102.337 381.919 101.979C391.916 100.349 402.171 101.63 411.459 105.669C419.113 109.029 427.167 114.776 429.809 123.095C431.973 129.898 442.723 126.989 440.545 120.136Z" fill="white"/>
<path d="M509.489 257.704C509.19 262.866 508.225 267.968 506.617 272.883C506.051 274.773 505.428 276.642 504.801 278.514C504.632 279.02 504.447 279.521 504.277 280.026C503.783 281.501 504.551 279.479 504.191 280.258C501.887 285.224 499.259 290.035 496.327 294.658C487.945 308.571 477.223 320.932 464.635 331.195C457.83 336.769 449.884 340.78 441.359 342.945C434.38 344.552 437.335 355.288 444.318 353.68C462.009 349.608 476.85 336.935 488.562 323.618C498.56 312.616 506.918 300.229 513.378 286.84C517.653 277.685 520.115 267.788 520.626 257.697C520.857 250.53 509.725 250.539 509.493 257.697L509.489 257.704Z" fill="white"/>
<path d="M280.049 256.043C286.522 293.383 306.739 329.95 341.291 348.038C350.742 352.993 361.055 356.094 371.673 357.171C373.146 357.161 374.556 356.571 375.598 355.53C376.64 354.488 377.229 353.078 377.239 351.605C377.207 350.138 376.61 348.741 375.573 347.704C374.536 346.667 373.139 346.07 371.673 346.038C336.031 342.328 308.291 310.304 297.142 278.189C294.347 270.007 292.222 261.611 290.787 253.084C290.384 251.667 289.441 250.466 288.16 249.738C286.879 249.011 285.364 248.817 283.941 249.197C282.536 249.617 281.347 250.564 280.622 251.839C279.898 253.115 279.691 254.621 280.049 256.043Z" fill="white"/>
<path d="M523.286 202.1C525.708 200.125 528.801 199.167 531.916 199.427C535.03 199.686 537.922 201.143 539.984 203.492C542.405 206.534 542.614 210.929 542.767 214.642C542.983 219.074 542.733 223.515 542.02 227.895C539.356 243.528 531.166 262.576 513.756 265.587C512.339 265.99 511.138 266.933 510.411 268.214C509.684 269.495 509.489 271.01 509.869 272.433C510.289 273.838 511.236 275.027 512.512 275.751C513.787 276.476 515.293 276.679 516.715 276.32C535.007 273.159 545.843 255.839 550.778 239.317C553.323 230.828 554.352 221.956 553.816 213.109C553.245 204.231 550.569 195.887 542.382 191.267C538.127 188.924 533.253 187.951 528.424 188.481C523.596 189.011 519.048 191.018 515.403 194.229C514.37 195.278 513.791 196.692 513.791 198.164C513.791 199.637 514.37 201.05 515.403 202.1C516.461 203.116 517.871 203.684 519.338 203.684C520.806 203.684 522.216 203.116 523.274 202.1H523.286Z" fill="white"/>
<path d="M284.535 194.229C281.349 191.406 277.457 189.501 273.274 188.716C269.091 187.932 264.773 188.298 260.781 189.776C252.054 193.215 247.576 200.555 246.453 209.617C244.351 227.368 248.794 245.276 258.949 259.986C264.581 268.406 273.3 274.273 283.222 276.318C284.644 276.667 286.146 276.459 287.419 275.736C288.693 275.012 289.641 273.829 290.068 272.428C290.448 271.005 290.254 269.49 289.527 268.209C288.8 266.929 287.598 265.985 286.181 265.582C268.773 262.567 260.582 243.522 257.917 227.89C257.232 223.679 256.978 219.409 257.156 215.146C257.286 211.402 257.43 206.963 259.731 203.816C260.727 202.588 261.957 201.57 263.348 200.818C264.74 200.067 266.266 199.598 267.839 199.439C269.412 199.279 271.002 199.432 272.516 199.889C274.03 200.346 275.438 201.097 276.661 202.1C277.723 203.109 279.132 203.671 280.597 203.671C282.062 203.671 283.47 203.109 284.532 202.1C285.565 201.05 286.144 199.637 286.144 198.164C286.144 196.692 285.567 195.278 284.535 194.229Z" fill="white"/>
<path d="M449.627 343.875C449.792 352.92 450.306 363.034 455.328 370.875C459.066 376.319 463.634 381.143 468.865 385.173C474.073 389.417 479.523 393.356 485.188 396.969C488.1 398.988 491.151 400.8 494.318 402.389C495.603 403.091 497.107 403.276 498.524 402.905C499.94 402.533 501.16 401.634 501.935 400.392C502.669 399.115 502.87 397.6 502.497 396.176C502.123 394.751 501.204 393.531 499.938 392.778C497.084 391.348 494.33 389.726 491.695 387.924C486.882 384.911 482.232 381.644 477.766 378.137C475.21 376.109 472.759 373.951 470.423 371.673C468.65 369.959 467.015 368.108 465.532 366.137C464.757 365.029 464.071 363.861 463.482 362.644C464.104 363.934 463.116 361.628 463.055 361.45C462.666 360.29 462.346 359.114 462.072 357.927C461.151 353.3 460.711 348.591 460.759 343.875C460.629 336.72 449.497 336.697 449.627 343.875Z" fill="white"/>
<path d="M305.628 402.386C308.698 400.834 311.638 399.036 314.418 397.011C319.721 393.492 324.759 389.591 329.493 385.338C334.269 381.315 338.228 376.413 341.156 370.898C345.099 362.575 345.445 352.992 345.489 343.94C345.521 336.775 334.391 336.766 334.356 343.94C334.421 348.201 334.207 352.462 333.716 356.695C333.291 360.006 332.391 363.239 331.042 366.292C328.32 370.926 324.779 375.027 320.592 378.396C316.581 381.901 312.328 385.118 307.864 388.024C305.367 389.808 302.737 391.399 299.997 392.783C298.731 393.535 297.811 394.755 297.437 396.18C297.064 397.605 297.266 399.12 298 400.397C298.768 401.646 299.989 402.551 301.408 402.923C302.827 403.295 304.334 403.105 305.617 402.393L305.628 402.386Z" fill="white"/>
<path d="M383.39 447.331C394.703 447.331 406.016 447.083 417.329 447.078C418.806 447.078 420.221 446.492 421.265 445.448C422.309 444.404 422.895 442.988 422.895 441.512C422.895 440.036 422.309 438.62 421.265 437.576C420.221 436.532 418.806 435.946 417.329 435.946C406.016 435.946 394.703 436.196 383.39 436.199C381.913 436.199 380.498 436.785 379.454 437.829C378.41 438.873 377.824 440.288 377.824 441.765C377.824 443.241 378.41 444.657 379.454 445.701C380.498 446.744 381.913 447.331 383.39 447.331Z" fill="white"/>
<path d="M371.207 418.361C372.148 423.111 373.18 427.84 374.266 432.562C375.344 435.766 375.968 439.105 376.121 442.481C375.919 445.858 375.279 449.26 374.841 452.612C372.809 468.151 370.748 483.689 368.748 499.228C367.389 509.79 366.06 520.355 364.762 530.923C364.77 532.396 365.359 533.807 366.401 534.849C367.443 535.891 368.854 536.481 370.328 536.489C371.793 536.454 373.189 535.857 374.225 534.82C375.262 533.784 375.859 532.388 375.894 530.923C378.148 512.471 380.532 494.047 382.951 475.609C384.378 464.727 386.344 453.771 387.216 442.825C387.243 439.254 386.709 435.701 385.635 432.295C384.273 426.69 383.06 421.052 381.94 415.395C381.536 413.979 380.592 412.779 379.312 412.052C378.031 411.324 376.517 411.128 375.094 411.506C373.687 411.924 372.496 412.871 371.771 414.147C371.046 415.424 370.843 416.931 371.204 418.354L371.207 418.361Z" fill="white"/>
<path d="M409.203 394.329C402.492 394.34 395.783 394.354 389.074 394.371C387.598 394.371 386.182 394.958 385.138 396.002C384.094 397.045 383.508 398.461 383.508 399.937C383.508 401.414 384.094 402.829 385.138 403.873C386.182 404.917 387.598 405.504 389.074 405.504C395.783 405.493 402.492 405.479 409.203 405.462C410.679 405.462 412.095 404.875 413.139 403.832C414.182 402.788 414.769 401.372 414.769 399.896C414.769 398.419 414.182 397.004 413.139 395.96C412.095 394.916 410.679 394.329 409.203 394.329Z" fill="white"/>
<path d="M436.201 526.37C433.572 508.744 430.939 491.126 428.299 473.515C427.325 466.959 426.363 460.401 425.414 453.839C425.094 451.603 424.78 449.366 424.473 447.127C424.317 446.014 424.605 448.173 424.424 446.767C424.377 446.417 424.331 446.072 424.287 445.721C424.213 445.142 424.127 444.562 424.076 443.977C423.96 441.557 424.27 439.135 424.992 436.822C426.312 431.878 428.037 427.063 429.287 422.093C431.038 415.135 420.305 412.178 418.554 419.134C416.608 426.859 412.505 435.136 412.872 443.217C413.023 446.579 413.714 449.972 414.182 453.298C416.232 467.865 418.443 482.407 420.618 496.955C422.235 507.746 423.852 518.537 425.468 529.33C425.868 530.748 426.812 531.951 428.093 532.678C429.374 533.406 430.891 533.599 432.314 533.217C433.717 532.793 434.904 531.846 435.627 530.571C436.351 529.297 436.557 527.792 436.201 526.37Z" fill="white"/>
<path d="M403.964 624.921C415.56 590.56 427.161 556.195 438.766 521.827C449.414 490.299 460.931 459.064 471.057 427.36C476.755 409.52 482.015 391.53 486.289 373.294C487.913 366.336 477.191 363.349 475.556 370.332C467.886 403.047 457.137 434.953 446.125 466.666C434.892 499.01 423.8 531.402 412.849 563.842L393.221 621.967C390.923 628.769 401.672 631.686 403.954 624.926L403.964 624.921Z" fill="white"/>
<path d="M313.66 373.301C321.411 406.366 332.306 438.606 343.446 470.655C354.153 501.464 364.381 532.477 375.859 563.007C382.098 579.604 388.691 596.063 395.317 612.509C395.749 613.907 396.697 615.088 397.97 615.81C399.242 616.533 400.742 616.742 402.164 616.396C403.582 615.995 404.785 615.051 405.513 613.769C406.24 612.487 406.433 610.97 406.051 609.547C394.111 579.917 382.536 550.175 372.271 519.914C361.464 488.054 349.863 456.457 339.626 424.408C333.93 406.568 328.67 388.578 324.393 370.339C322.77 363.368 312.025 366.32 313.66 373.301Z" fill="white"/>
<path d="M445.879 437.066C457.214 423.77 467.132 409.329 475.472 393.977C477.509 390.164 479.453 386.306 481.305 382.402C482.347 380.217 484.19 377.487 484.19 375.054C483.815 372.727 482.903 370.52 481.526 368.607C477.854 361.495 473.016 355.05 467.211 349.541C466.6 348.958 465.866 348.519 465.064 348.256C464.261 347.993 463.41 347.913 462.572 348.021C461.734 348.129 460.932 348.422 460.222 348.88C459.512 349.338 458.914 349.949 458.47 350.668C456.498 353.117 454.363 355.43 452.081 357.593C449.379 360.171 446.532 362.594 443.555 364.85C436.021 370.496 427.983 375.435 419.542 379.605C415.056 381.847 410.413 383.663 405.858 385.744C401.22 387.861 397.688 392.131 400.784 397.256C402.108 399.24 403.671 401.052 405.439 402.653C408.333 405.522 411.179 408.43 413.936 411.431C421.863 420.059 430.445 428.109 438.005 437.066C439.055 438.099 440.469 438.677 441.941 438.677C443.413 438.677 444.827 438.099 445.877 437.066C446.893 436.008 447.46 434.597 447.46 433.13C447.46 431.663 446.893 430.253 445.877 429.194C438.893 420.922 430.994 413.484 423.64 405.552C420.528 402.199 417.42 398.857 414.173 395.635C413.224 394.694 412.29 393.738 411.336 392.801C410.986 392.458 410.11 391.24 411.278 392.864C411.137 392.669 410.397 391.368 410.492 391.792V394.752L410.655 394.118L409.224 396.575C408.639 397.259 409.435 396.398 409.827 396.178C410.365 395.879 410.914 395.596 411.476 395.343C413.192 394.566 414.954 393.907 416.696 393.158C420.022 391.72 423.298 390.174 426.525 388.52C432.455 385.496 438.192 382.106 443.701 378.371C452.98 372.39 461.215 364.927 468.079 356.28L459.338 357.405C465.332 363.315 470.233 370.238 473.814 377.856V372.237C464.478 392.736 452.434 411.891 438.005 429.188C436.998 430.25 436.437 431.659 436.437 433.123C436.437 434.588 436.998 435.996 438.005 437.059C439.054 438.093 440.468 438.673 441.941 438.674C443.414 438.675 444.828 438.098 445.879 437.066Z" fill="white"/>
<path d="M361.941 429.194C347.512 411.895 335.468 392.738 326.132 372.236V377.856C329.715 370.239 334.616 363.315 340.609 357.405L331.868 356.28C338.733 364.925 346.968 372.388 356.245 378.371C361.613 382.013 367.198 385.325 372.969 388.288C376.185 389.944 379.452 391.495 382.77 392.943C384.498 393.696 386.249 394.383 387.982 395.137C388.578 395.396 389.172 395.656 389.744 395.965C390.127 396.169 391.407 397.37 390.723 396.568L389.292 394.111L389.454 394.745V391.785C389.55 391.361 388.81 392.662 388.668 392.857C389.828 391.233 388.96 392.451 388.61 392.794C387.657 393.722 386.722 394.687 385.774 395.628C382.527 398.85 379.419 402.192 376.307 405.545C368.952 413.477 361.053 420.915 354.07 429.188C353.061 430.25 352.499 431.658 352.499 433.123C352.499 434.588 353.061 435.997 354.07 437.059C355.12 438.092 356.533 438.67 358.006 438.67C359.478 438.67 360.892 438.092 361.941 437.059C368.577 429.199 376.042 422.095 383.074 414.6C386.263 411.202 389.387 407.756 392.683 404.458C394.642 402.659 396.469 400.721 398.149 398.659C400.974 394.872 401.178 390.266 396.973 387.346C393.165 384.705 388.304 383.373 384.116 381.404C375.41 377.343 367.088 372.505 359.251 366.949C352.591 362.385 346.608 356.905 341.479 350.67C341.035 349.951 340.437 349.341 339.727 348.883C339.017 348.425 338.215 348.131 337.377 348.023C336.539 347.915 335.688 347.995 334.885 348.258C334.083 348.521 333.349 348.96 332.738 349.543C327.032 354.944 322.264 361.256 318.63 368.222C317.159 370.249 316.177 372.588 315.759 375.057C316.226 377.672 317.207 380.169 318.644 382.404C320.499 386.302 322.443 390.16 324.477 393.979C332.817 409.331 342.735 423.772 354.07 437.068C355.12 438.101 356.533 438.679 358.006 438.679C359.478 438.679 360.892 438.101 361.941 437.068C362.957 436.009 363.525 434.599 363.525 433.131C363.525 431.664 362.957 430.253 361.941 429.194Z" fill="white"/>
<path d="M477.887 376.627C486.235 381.903 493.927 388.153 500.801 395.243C504.455 398.857 507.888 402.688 511.082 406.714C512.441 408.449 513.721 410.249 514.92 412.095C515.525 413.023 516.11 413.971 516.664 414.931C516.896 415.339 517.128 415.75 517.36 416.165C517.525 416.467 517.682 416.77 517.838 417.077C518.105 417.621 518.06 417.472 517.703 416.631L518.464 413.82C518.895 413.403 518.823 413.387 518.253 413.776L516.785 414.586L514.827 415.664L509.447 418.633L499.173 424.299C498.444 424.734 497.824 425.329 497.359 426.039C496.894 426.749 496.595 427.555 496.487 428.397C496.378 429.239 496.462 430.094 496.732 430.899C497.002 431.703 497.451 432.436 498.045 433.042C503.148 437.655 508.211 442.298 513.12 447.104C514.314 448.272 515.5 449.451 516.678 450.64C517.564 451.536 519.294 452.677 519.767 453.825C520.025 454.451 519.92 453.901 519.918 453.746C519.918 454.094 519.575 454.527 519.436 454.815C518.677 456.383 517.791 457.907 516.97 459.453C510.82 470.966 504.558 482.419 498.185 493.813C485.151 517.177 471.745 540.339 458.185 563.39C450.722 576.068 443.21 588.722 435.651 601.351C431.966 607.515 441.586 613.119 445.262 606.97C473.77 559.278 501.965 511.351 528.059 462.288C529.902 458.809 531.667 455.46 530.735 451.417C529.83 447.505 526.468 444.692 523.759 441.983C517.991 436.185 511.963 430.663 505.901 425.175L504.774 433.916L518.473 426.36C522.474 424.152 528.599 422.035 528.819 416.636C528.965 413.104 526.577 409.678 524.733 406.8C522.627 403.581 520.34 400.484 517.884 397.523C508.201 385.515 496.585 375.204 483.513 367.014C477.383 363.268 471.785 372.891 477.894 376.627H477.887Z" fill="white"/>
<path d="M316.443 367.014C303.367 375.202 291.745 385.51 282.056 397.516C279.6 400.477 277.313 403.574 275.207 406.793C273.372 409.653 270.939 413.101 271.12 416.629C271.396 422.033 277.431 424.127 281.466 426.353L295.166 433.909L294.039 425.168C288.255 430.405 282.501 435.679 276.972 441.187C274.48 443.326 272.271 445.774 270.399 448.472C269.442 450.246 268.962 452.239 269.007 454.254C269.052 456.27 269.621 458.239 270.657 459.968C276.731 472.29 283.802 484.227 290.588 496.167C304.784 521.131 319.544 545.782 334.53 570.299C342.846 583.905 351.217 597.476 359.645 611.013C363.416 617.087 373.051 611.502 369.256 605.393C340.683 559.38 312.203 513.22 286.318 465.623C284.59 462.447 282.877 459.265 281.181 456.077C280.877 455.506 280.557 454.938 280.27 454.36C279.901 453.621 280.075 454.015 280.096 453.966C281.219 452.42 282.552 451.037 284.055 449.856C289.825 444.058 295.853 438.536 301.913 433.049C302.507 432.443 302.956 431.71 303.226 430.906C303.496 430.101 303.58 429.245 303.471 428.404C303.363 427.562 303.065 426.756 302.6 426.046C302.134 425.336 301.514 424.741 300.786 424.306L290.514 418.64L285.62 415.94L283.173 414.593C282.735 414.361 280.982 412.872 281.494 413.827L282.255 416.638C282.292 417.526 281.868 417.478 282.436 416.476C282.668 416.07 282.881 415.655 283.111 415.249C283.653 414.289 284.229 413.349 284.822 412.422C286.005 410.58 287.269 408.781 288.607 407.05C298.07 395.196 309.365 384.928 322.065 376.634C328.166 372.902 322.579 363.27 316.445 367.021L316.443 367.014Z" fill="white"/>
<path d="M602.898 661.308L613.891 659.916C615.356 659.858 616.753 659.283 617.834 658.293C618.351 657.776 618.761 657.162 619.041 656.487C619.321 655.811 619.465 655.087 619.465 654.356C619.465 653.625 619.321 652.901 619.041 652.225C618.761 651.55 618.351 650.936 617.834 650.419C617.324 649.892 616.71 649.475 616.032 649.196C615.353 648.917 614.625 648.78 613.891 648.795L602.898 650.187C601.432 650.242 600.034 650.818 598.955 651.81C597.911 652.854 597.325 654.27 597.325 655.746C597.325 657.222 597.911 658.638 598.955 659.682C599.466 660.208 600.079 660.624 600.758 660.904C601.436 661.183 602.164 661.322 602.898 661.308Z" fill="white"/>
<path d="M196.43 650.175L185.436 648.784C184.704 648.78 183.979 648.922 183.302 649.2C182.625 649.479 182.011 649.889 181.494 650.407C180.977 650.924 180.566 651.538 180.286 652.213C180.006 652.889 179.862 653.613 179.862 654.344C179.862 655.075 180.006 655.799 180.286 656.475C180.566 657.15 180.977 657.764 181.494 658.281L182.621 659.151C183.473 659.649 184.442 659.912 185.429 659.912L196.423 661.303C197.154 661.306 197.88 661.164 198.556 660.885C199.233 660.607 199.848 660.197 200.365 659.68C201.409 658.636 201.995 657.22 201.995 655.744C201.995 654.268 201.409 652.852 200.365 651.808L199.238 650.936C198.386 650.437 197.417 650.175 196.43 650.178V650.175Z" fill="white"/>
<path d="M399.974 499.998C342.458 500.416 284.934 500.777 227.405 501.081C223.087 501.105 218.77 501.125 214.455 501.142C210.454 501.158 205.783 500.599 201.982 501.967C199.07 503.068 196.589 505.077 194.906 507.696C193.224 510.316 192.429 513.407 192.64 516.513C192.651 519.306 192.667 522.098 192.689 524.891C192.8 541.125 192.961 557.355 193.171 573.58C193.681 616.816 194.312 660.049 195.064 703.281C195.402 722.707 195.782 742.132 196.202 761.556C196.371 769.052 196.557 776.551 196.761 784.053C196.926 789.981 198.709 795.417 204.329 798.339C208.348 800.427 212.966 799.886 217.335 799.847C270.135 799.353 322.951 799.791 375.75 799.965C436.078 800.162 496.408 799.613 556.738 799.733C565.521 799.75 574.306 799.773 583.092 799.859C587.61 799.903 592.195 800.355 596.288 797.987C601.854 794.763 603.051 789.079 603.213 783.167C603.677 766.568 604.011 749.965 604.334 733.362C605.178 689.885 605.873 646.405 606.421 602.921C606.673 583.848 606.897 564.774 607.093 545.701C607.163 538.555 607.223 531.409 607.274 524.264C607.293 521.456 607.342 518.643 607.321 515.834C607.425 512.571 606.406 509.371 604.434 506.77C602.462 504.168 599.657 502.322 596.488 501.541C592.5 500.987 588.466 500.856 584.451 501.151L571.567 501.091C560.338 501.035 549.11 500.975 537.883 500.91C507.935 500.741 477.986 500.554 448.036 500.348C432.016 500.24 415.999 500.128 399.984 500.012C392.82 499.961 392.81 511.093 399.984 511.144C456.394 511.553 512.804 511.908 569.216 512.211C577.101 512.251 585.123 511.875 593.004 512.318C596.59 512.52 596.191 515.544 596.177 518.322C596.163 521.171 596.145 524.018 596.123 526.864C596.007 542.884 595.847 558.904 595.641 574.923C595.137 617.225 594.519 659.524 593.786 701.822C593.455 720.868 593.086 739.913 592.679 758.959C592.514 766.422 592.334 773.884 592.139 781.344C592.076 783.663 592.835 788.07 589.848 788.766C588.29 788.929 586.719 788.92 585.163 788.74C583.397 788.719 581.632 788.702 579.868 788.691C527.792 788.286 475.707 788.661 423.633 788.833C364.622 789.028 305.614 788.504 246.604 788.587C237.51 788.601 228.416 788.622 219.325 788.696C216.244 789.071 213.129 789.071 210.048 788.696C207.001 787.863 207.866 783.084 207.798 780.637C207.353 763.973 207.015 747.307 206.694 730.643C205.883 688.31 205.211 645.976 204.679 603.642C204.433 584.982 204.213 566.32 204.018 547.656C203.945 540.576 203.883 533.495 203.83 526.412C203.812 523.592 203.795 520.77 203.779 517.947C203.763 514.609 203.842 512.32 207.798 512.304C256.215 512.132 304.631 511.853 353.047 511.465C368.69 511.358 384.332 511.248 399.974 511.135C407.134 511.08 407.15 499.947 399.974 499.998Z" fill="white"/>
<path d="M237.93 766.299C277.786 766.051 317.646 766.264 357.502 766.387C406.334 766.538 455.161 766.309 503.99 766.237C523.332 766.209 542.677 766.179 562.019 766.299C569.186 766.346 569.192 755.213 562.019 755.167C522.163 754.919 482.303 755.132 442.447 755.255C393.615 755.406 344.788 755.176 295.959 755.104C276.617 755.076 257.272 755.046 237.93 755.167C230.768 755.211 230.752 766.346 237.93 766.299Z" fill="white"/>
<path d="M399.975 621.176C393.958 621.234 387.942 621.315 381.926 621.32C380.457 621.342 379.054 621.935 378.015 622.974C376.976 624.013 376.382 625.416 376.36 626.886C376.337 633.197 376.328 639.508 376.335 645.818C376.335 649.528 376.335 653.239 376.381 656.95C376.393 658.281 376.381 659.619 376.434 660.951C376.401 661.768 376.54 662.584 376.842 663.344C377.144 664.105 377.603 664.793 378.188 665.366C378.773 665.938 379.471 666.381 380.238 666.666C381.006 666.951 381.824 667.071 382.641 667.02C393.455 667.02 404.27 666.946 415.082 666.997C416.999 667.273 418.954 667.027 420.743 666.287C423.383 664.745 423.505 661.987 423.543 659.297C423.591 655.818 423.6 652.355 423.61 648.884C423.627 641.555 423.62 634.226 423.589 626.897C423.567 625.428 422.973 624.025 421.934 622.986C420.895 621.947 419.492 621.353 418.023 621.331C412.007 621.331 405.991 621.245 399.975 621.187C398.498 621.187 397.082 621.774 396.039 622.818C394.995 623.862 394.408 625.277 394.408 626.754C394.408 628.23 394.995 629.646 396.039 630.689C397.082 631.733 398.498 632.32 399.975 632.32C405.991 632.378 412.007 632.459 418.023 632.463L412.457 626.897C412.501 638.419 412.656 649.96 412.371 661.479L413.132 658.671L417.937 655.913C415.954 655.73 413.906 655.855 411.919 655.858C407.939 655.858 403.957 655.897 399.977 655.897C396.09 655.897 392.203 655.86 388.316 655.858C386.228 655.858 384.092 655.723 382.017 655.913L386.82 658.661L387.578 661.47C387.293 649.95 387.448 638.41 387.492 626.888L381.926 632.454C387.942 632.454 393.958 632.368 399.975 632.31C401.451 632.31 402.867 631.724 403.91 630.68C404.954 629.636 405.541 628.22 405.541 626.744C405.541 625.268 404.954 623.852 403.91 622.808C402.867 621.765 401.451 621.178 399.975 621.178V621.176Z" fill="white"/>
<path d="M378.452 293.865C385.483 297.498 393.313 299.307 401.225 299.127C409.358 299.074 417.608 297.485 424.127 292.402C425.163 291.354 425.745 289.94 425.745 288.466C425.745 286.992 425.163 285.578 424.127 284.53C423.065 283.52 421.656 282.957 420.191 282.957C418.726 282.957 417.317 283.52 416.255 284.53C417.918 283.234 416.538 284.287 416.112 284.56C415.685 284.834 415.184 285.129 414.692 285.384C414.328 285.574 412.624 286.27 414.073 285.725C413.421 285.97 412.777 286.223 412.113 286.437C408.364 287.653 404.425 288.18 400.487 287.99C399.327 287.99 398.168 287.944 397.008 287.865C396.475 287.828 395.941 287.786 395.41 287.733C395.41 287.733 393.555 287.485 394.531 287.636C392.799 287.374 391.086 286.993 389.406 286.497C388.689 286.283 387.989 286.033 387.281 285.783C387.049 285.704 386.829 285.583 386.586 285.516C387.977 285.915 387.063 285.729 386.676 285.546C385.797 285.133 384.932 284.702 384.072 284.247C382.789 283.534 381.281 283.343 379.862 283.715C378.443 284.087 377.222 284.993 376.455 286.244C375.726 287.523 375.527 289.036 375.9 290.46C376.274 291.884 377.191 293.105 378.454 293.86L378.452 293.865Z" fill="white"/>
<path d="M398.567 239.975C399.626 243.796 400.473 247.672 401.104 251.585L400.907 250.106C400.982 250.637 400.997 251.174 400.951 251.708L401.148 250.229C401.113 250.474 401.054 250.716 400.972 250.95L401.533 249.619C401.464 249.781 401.379 249.936 401.28 250.083L402.15 248.958C402.036 249.095 401.909 249.22 401.77 249.331L402.897 248.461C402.599 248.644 402.289 248.806 401.969 248.946L403.298 248.385C402.803 248.603 402.282 248.758 401.749 248.849L403.228 248.652C402.745 248.708 402.256 248.708 401.772 248.652L403.252 248.849C402.704 248.772 402.166 248.64 401.616 248.566C400.166 248.228 398.643 248.428 397.328 249.127C396.697 249.496 396.144 249.986 395.702 250.568C395.26 251.15 394.937 251.814 394.752 252.522C394.566 253.229 394.522 253.966 394.622 254.69C394.721 255.415 394.962 256.112 395.331 256.743C395.684 257.372 396.16 257.922 396.732 258.361C397.304 258.799 397.959 259.117 398.657 259.295C399.872 259.459 401.051 259.758 402.284 259.823C404.127 259.834 405.944 259.404 407.586 258.569C408.619 258.105 409.534 257.415 410.265 256.55C410.995 255.685 411.522 254.667 411.807 253.571C412.18 251.778 412.161 249.926 411.752 248.141C411.118 244.401 410.256 240.694 409.293 237.025C408.901 235.602 407.959 234.392 406.675 233.663C405.39 232.934 403.869 232.745 402.446 233.137C401.022 233.53 399.813 234.472 399.083 235.756C398.354 237.04 398.165 238.561 398.557 239.985L398.567 239.975Z" fill="white"/>
<path d="M336.808 207.2C334.869 213.501 336.133 227.994 348.07 229.233C363.841 229.138 364.685 211.607 359.374 203.376C355.028 196.627 342.24 193.82 336.808 207.2Z" fill="white"/>
<path d="M463.141 207.2C465.08 213.501 463.816 227.994 451.881 229.233C436.11 229.138 435.264 211.607 440.575 203.376C444.923 196.627 457.707 193.82 463.141 207.2Z" fill="white"/>
</g>
<defs>
<clipPath id="clip0_130_326">
<rect width="800" height="800" fill="white"/>
</clipPath>
</defs>
</svg>
