<svg width="47" height="36" viewBox="0 0 47 36" fill="none" xmlns="http://www.w3.org/2000/svg">
<path d="M14.5544 36C31.9534 36 41.47 22.1486 41.47 10.1366C41.47 9.74319 41.47 9.35154 41.4423 8.96162C43.2936 7.67479 44.8918 6.08163 46.1618 4.25647C44.4354 4.99157 42.6038 5.47356 40.7286 5.68661C42.7029 4.55095 44.1815 2.76335 44.8874 0.658863C43.0306 1.71759 40.9989 2.46386 38.8806 2.86528C37.0919 1.03762 34.5939 0 31.9831 0C26.7887 0 22.5145 4.1072 22.5145 9.09843C22.5145 9.79087 22.5968 10.4811 22.7596 11.1556C15.1575 10.7895 8.06471 7.3342 3.26361 1.65841C0.766976 5.78828 2.05879 11.1404 6.19232 13.7926C4.68708 13.7498 3.21417 13.3595 1.89886 12.6549V12.77C1.90012 17.0806 5.09097 20.8272 9.48809 21.6807C8.09551 22.0456 6.63404 22.0989 5.21678 21.8366C6.45294 25.5303 10.0176 28.0763 14.0546 28.1492C10.7055 30.6783 6.56605 32.0521 2.30644 32.048C1.55377 32.0467 0.801827 32.0029 0.0545654 31.9169C4.38018 34.5842 9.4147 35.9995 14.5544 35.9929" fill="white"/>
</svg>
