<svg width="38" height="36" viewBox="0 0 38 36" fill="none" xmlns="http://www.w3.org/2000/svg">
<path d="M19.0466 0C8.70313 0 0.314331 8.06087 0.314331 18C0.314331 21.7565 1.49528 25.3174 3.73501 28.3696L0.395776 35.413C0.314331 35.5696 0.355053 35.7261 0.47722 35.8435C0.599387 35.9609 0.762277 36 0.925166 35.9609L8.94747 33.1435C11.9609 35.0217 15.463 36 19.0466 36H19.0873C29.4308 36 37.8196 27.9391 37.8196 18C37.8196 8.06087 29.3901 0 19.0466 0ZM29.4715 24.9261C29.3494 25.2391 29.0643 25.5913 28.9014 25.8652C28.5349 26.3348 28.087 26.8043 27.6797 27.1174C27.5983 27.1957 27.5169 27.2348 27.4354 27.313C27.354 27.3522 27.3132 27.3913 27.2318 27.4304C26.906 27.6652 26.5802 27.8217 26.2952 27.9C26.0916 27.9783 25.8472 28.0174 25.6029 28.0174C25.5215 28.0174 25.44 28.0174 25.3993 28.0174C24.9921 28.0174 24.7477 27.9391 24.1776 27.7435C23.7297 27.5478 23.241 27.3522 22.7116 27.1565L22.5894 27.0783C22.1415 26.8826 21.6936 26.6478 21.2456 26.4522L21.0827 26.3348C20.6348 26.1 20.2276 25.8652 19.8203 25.6304L19.7389 25.5522C16.929 23.8696 14.5671 21.8348 12.531 19.2913C12.3274 19.0565 12.1645 18.8217 11.9609 18.587C11.8795 18.4696 11.798 18.3522 11.7166 18.2348L11.4723 17.8826C11.3094 17.6478 11.1872 17.4522 11.0243 17.2174L10.9836 17.1783C10.8614 16.9435 10.6985 16.7478 10.5764 16.513C10.5764 16.513 10.5356 16.4739 10.5356 16.4348C9.88408 15.3391 9.31397 14.2043 8.90674 13.1087C8.4588 11.9348 8.33663 11.1913 8.8253 10.3696C9.02891 10.0174 9.80264 9.31304 10.332 8.96087C11.2686 8.29565 11.6759 8.06087 12.0831 7.98261C12.3681 7.94348 12.8161 7.94348 13.1419 8.06087C13.3048 8.1 13.5084 8.21739 13.6305 8.29565C14.4043 8.76522 16.196 10.9957 16.7662 12.0522C17.1734 12.7565 17.2548 13.3043 17.1327 13.7348C17.0105 14.2043 16.7254 14.4783 15.911 15.0652C15.7481 15.2217 15.5445 15.3391 15.4223 15.4565C15.3816 15.4957 15.3816 15.4957 15.3409 15.5348L15.3002 15.5739C15.2187 15.6522 15.178 15.887 15.178 16.0435C15.178 16.4348 15.463 17.3348 15.9517 18.0391C16.3182 18.587 16.929 19.2913 17.5806 19.8391C18.3136 20.4652 18.9652 20.8957 19.6982 21.2478C20.5533 21.6391 21.0827 21.7565 21.3678 21.6391C21.4085 21.6 21.4899 21.6 21.5307 21.5609C21.6121 21.4826 21.775 21.287 22.0601 20.9739C22.4673 20.4652 22.6709 20.2696 22.9967 20.113C23.0781 20.0739 23.2003 20.0348 23.2817 19.9957C23.8518 19.8 24.4627 19.8391 25.0328 20.1522C25.44 20.3478 26.2545 20.8174 26.7839 21.1696C27.4354 21.6 28.9829 22.7739 29.2272 23.0478C29.4715 23.3217 29.6344 23.6739 29.6344 24.0652C29.6751 24.3 29.5937 24.613 29.4715 24.9261Z" fill="white"/>
</svg>
